<svg width="46" height="45" viewBox="0 0 46 45" fill="none" xmlns="http://www.w3.org/2000/svg">
<rect x="44" y="1" width="44" height="44" transform="rotate(90 44 1)" fill="white"/>
<rect x="13.4541" y="7.2972" width="19" height="8" transform="rotate(45 13.4541 7.2972)" fill="black"/>
<rect x="33.9602" y="19.318" width="4" height="8" transform="rotate(45 33.9602 19.318)" fill="black"/>
<rect x="33.9602" y="13.6612" width="4" height="24" transform="rotate(45 33.9602 13.6612)" fill="black"/>
<rect x="33.9602" y="24.9749" width="4" height="4" transform="rotate(45 33.9602 24.9749)" fill="black"/>
<rect x="28.3033" y="24.9749" width="12" height="4" transform="rotate(45 28.3033 24.9749)" fill="black"/>
<rect x="28.3033" y="30.6317" width="4" height="4" transform="rotate(45 28.3033 30.6317)" fill="black"/>
<rect x="25.4749" y="27.8033" width="4" height="8" transform="rotate(45 25.4749 27.8033)" fill="black"/>
<rect x="16.9896" y="30.6317" width="4" height="4" transform="rotate(45 16.9896 30.6317)" fill="black"/>
</svg>
