<svg width="44" height="44" viewBox="0 0 44 44" fill="none" xmlns="http://www.w3.org/2000/svg">
<rect x="44" y="44" width="44" height="44" transform="rotate(-180 44 44)" fill="white"/>
<rect x="40" y="27" width="19" height="8" transform="rotate(-180 40 27)" fill="black"/>
<rect x="17" y="33" width="4" height="8" transform="rotate(-180 17 33)" fill="black"/>
<rect x="21" y="37" width="4" height="24" transform="rotate(-180 21 37)" fill="black"/>
<rect x="13" y="29" width="4" height="4" transform="rotate(-180 13 29)" fill="black"/>
<rect x="17" y="25" width="12" height="4" transform="rotate(-180 17 25)" fill="black"/>
<rect x="13" y="21" width="4" height="4" transform="rotate(-180 13 21)" fill="black"/>
<rect x="17" y="21" width="4" height="8" transform="rotate(-180 17 21)" fill="black"/>
<rect x="21" y="13" width="4" height="4" transform="rotate(-180 21 13)" fill="black"/>
</svg>
