<svg width="44" height="44" viewBox="0 0 44 44" fill="none" xmlns="http://www.w3.org/2000/svg">
<rect x="44" width="44" height="44" transform="rotate(90 44 0)" fill="white"/>
<rect x="27" y="4" width="19" height="8" transform="rotate(90 27 4)" fill="black"/>
<rect x="33" y="27" width="4" height="8" transform="rotate(90 33 27)" fill="black"/>
<rect x="37" y="23" width="4" height="24" transform="rotate(90 37 23)" fill="black"/>
<rect x="29" y="31" width="4" height="4" transform="rotate(90 29 31)" fill="black"/>
<rect x="25" y="27" width="12" height="4" transform="rotate(90 25 27)" fill="black"/>
<rect x="21" y="31" width="4" height="4" transform="rotate(90 21 31)" fill="black"/>
<rect x="21" y="27" width="4" height="8" transform="rotate(90 21 27)" fill="black"/>
<rect x="13" y="23" width="4" height="4" transform="rotate(90 13 23)" fill="black"/>
</svg>
